<svg width="26" height="26" viewBox="0 0 26 26" fill="none" xmlns="http://www.w3.org/2000/svg">
<g id="Group 3786">
<circle id="Ellipse 46" cx="13" cy="13" r="13" fill="#C3E4FA"/>
<g id="Group 3779">
<path id="Vector" d="M15.0705 12.1327L16.4186 9.84326L20.0553 15.5078V16.5966L20.0434 9.11615C20.0391 9.02597 20.0132 8.93809 19.9678 8.86001C19.9225 8.78192 19.859 8.71586 19.7828 8.6674L13.238 4.89893C13.1598 4.86188 13.0743 4.84286 12.9877 4.84327C12.9011 4.84368 12.8157 4.86352 12.7379 4.90131C12.7177 4.91146 12.6982 4.92282 12.6794 4.93534L12.6565 4.94963L6.30095 8.63268L6.27645 8.64393C6.2435 8.65905 6.21206 8.67727 6.18255 8.69836C6.11444 8.74709 6.05807 8.8104 6.01752 8.8837C5.97697 8.95696 5.95326 9.03838 5.94812 9.12193L5.95799 15.218L9.34574 9.96742C9.77202 9.27133 10.7016 9.04676 11.5641 9.05935L12.5766 9.08588L6.61056 18.653L7.31383 19.0579L13.3507 9.09575L16.0191 9.08588L9.99694 19.2991L12.5059 20.7427L12.8056 20.9149C12.9349 20.9663 13.0785 20.9691 13.2098 20.9227L19.8495 17.075L18.5801 17.8106L15.0705 12.1327ZM15.5853 19.5471L13.0502 15.5694L14.5973 12.9442L17.9258 18.1903L15.5853 19.5471Z" fill="#2D374B"/>
<path id="Vector_2" d="M13.0509 15.5683L15.5853 19.546L17.9265 18.1892L14.5973 12.9441L13.0509 15.5683Z" fill="#28A0F0"/>
<path id="Vector_3" d="M20.0584 16.5945V15.5058L16.4216 9.84119L15.0723 12.1306L18.5831 17.8088L19.8526 17.0732C19.9139 17.0236 19.9641 16.9616 20 16.8912C20.0358 16.8209 20.0564 16.7438 20.0605 16.6649L20.0584 16.5945Z" fill="#28A0F0"/>
<path id="Vector_4" d="M4.81821 17.62L6.61092 18.653L12.5763 9.08624L11.5637 9.05968C10.7012 9.04743 9.7717 9.27165 9.34541 9.96813L5.95766 15.2186L4.81787 16.9698V17.6207L4.81821 17.62Z" fill="white"/>
<path id="Vector_5" d="M16.0195 9.08594L13.351 9.09581L7.31421 19.0576L9.42369 20.2726L9.9973 19.2995L16.0195 9.08594Z" fill="white"/>
<path id="Vector_6" d="M21.1828 9.07217C21.1705 8.79681 21.0914 8.52861 20.9524 8.29057C20.8135 8.05256 20.6187 7.85188 20.385 7.70578L13.7504 3.89106C13.5136 3.77473 13.2533 3.71423 12.9895 3.71423C12.7256 3.71423 12.4653 3.77473 12.2285 3.89106C12.1731 3.91896 5.77763 7.62823 5.77763 7.62823C5.50302 7.76009 5.26894 7.96342 5.09995 8.21685C4.93096 8.47031 4.83327 8.76458 4.81714 9.06877V16.9684L5.95693 15.2172L5.94706 9.12117C5.94851 9.09904 5.95124 9.077 5.95523 9.05518C5.98112 8.91084 6.06245 8.78238 6.18183 8.69725C6.21211 8.67582 12.7167 4.91041 12.7375 4.9002C12.8154 4.8624 12.9007 4.84257 12.9873 4.84215C13.0739 4.84175 13.1594 4.86076 13.2376 4.89782L19.7859 8.66663C19.8621 8.71509 19.9255 8.78112 19.9708 8.85924C20.0162 8.93733 20.0422 9.02517 20.0465 9.11539V16.6652C20.0446 16.7433 20.0263 16.82 19.9925 16.8904C19.9588 16.9608 19.9105 17.0232 19.8508 17.0735L18.5814 17.8091L17.9265 18.1888L15.5853 19.5457L13.2111 20.9226C13.0799 20.969 12.9363 20.9662 12.8069 20.9148L9.99791 19.299L9.42396 20.2721L11.9485 21.7256L12.1673 21.8494C12.2619 21.9025 12.3262 21.9379 12.3489 21.9488C12.5602 22.0414 12.7886 22.0883 13.0192 22.0866C13.2308 22.0869 13.4405 22.0474 13.6374 21.9702L20.5334 17.9772C20.7279 17.8258 20.8868 17.6337 20.9991 17.4142C21.1113 17.1948 21.174 16.9534 21.1828 16.7071V9.07217Z" fill="#96BEDC"/>
</g>
</g>
</svg>
