<svg width="26" height="26" viewBox="0 0 26 26" fill="none" xmlns="http://www.w3.org/2000/svg">
<g id="Group 3778">
<path id="Vector" d="M13 26C20.1797 26 26 20.1797 26 13C26 5.8203 20.1797 0 13 0C5.8203 0 0 5.8203 0 13C0 20.1797 5.8203 26 13 26Z" fill="#E84142"/>
<path id="Vector_2" fill-rule="evenodd" clip-rule="evenodd" d="M9.31797 18.1734H6.79603C6.26606 18.1734 6.00427 18.1734 5.8447 18.0713C5.67229 17.9594 5.56693 17.7742 5.5542 17.5698C5.54461 17.3814 5.67548 17.1514 5.93727 16.6915L12.1643 5.71129C12.4293 5.24501 12.5633 5.01188 12.7325 4.92566C12.9145 4.83305 13.1315 4.83305 13.3135 4.92566C13.4827 5.01188 13.6168 5.24501 13.8817 5.71129L15.1619 7.9468L15.1684 7.95823C15.4546 8.45841 15.5997 8.71207 15.6631 8.9783C15.7333 9.2701 15.7333 9.57435 15.6631 9.86614C15.5992 10.1344 15.4555 10.3899 15.165 10.8977L11.8942 16.6819L11.8857 16.6968C11.5976 17.2011 11.4517 17.4567 11.2493 17.6496C11.029 17.8604 10.7641 18.0136 10.4736 18.1C10.2086 18.1734 9.91175 18.1734 9.31797 18.1734ZM15.6867 18.1734H19.3003C19.8335 18.1734 20.1017 18.1734 20.2614 18.0681C20.4337 17.9563 20.5422 17.7678 20.5519 17.5636C20.5611 17.3812 20.433 17.1602 20.1821 16.7271C20.1735 16.7123 20.1648 16.6973 20.156 16.682L18.3459 13.5843L18.3253 13.5494C18.0709 13.1191 17.9426 12.9018 17.7776 12.8178C17.6882 12.7721 17.5892 12.7483 17.4887 12.7483C17.3883 12.7483 17.2893 12.7721 17.1999 12.8178C17.0339 12.904 16.8998 13.1308 16.6348 13.5874L14.8312 16.6852L14.8249 16.6959C14.5609 17.1518 14.429 17.3797 14.4385 17.5666C14.4512 17.7711 14.5566 17.9594 14.729 18.0713C14.8854 18.1734 15.1536 18.1734 15.6867 18.1734Z" fill="white"/>
</g>
</svg>
