<svg width="26" height="26" viewBox="0 0 26 26" fill="none" xmlns="http://www.w3.org/2000/svg">
<g id="Group 3785">
<circle id="Ellipse 45" cx="13" cy="13" r="13" fill="#2D374B"/>
<path id="Vector" d="M8.33033 6.98834L12.965 4.33337L17.5997 6.98834L15.8957 7.96915L12.965 6.295L10.0343 7.96915L8.33033 6.98834ZM17.5997 10.3366L15.8957 9.35582L12.965 11.03L10.0343 9.35582L8.33033 10.3366V12.2983L11.2611 13.9724V17.3207L12.965 18.3015L14.669 17.3207V13.9724L17.5997 12.2983V10.3366ZM17.5997 15.6466V13.6849L15.8957 14.6657V16.6273L17.5997 15.6466ZM18.8095 16.3399L15.8787 18.014V19.9756L20.5134 17.3207V12.0107L18.8095 12.9916V16.3399ZM17.1056 8.66248L18.8095 9.6433V11.6049L20.5134 10.6241V8.66248L18.8095 7.68167L17.1056 8.66248ZM11.2611 18.7243V20.6859L12.965 21.6667L14.669 20.6859V18.7243L12.965 19.7051L11.2611 18.7243ZM8.33033 15.6466L10.0343 16.6273V14.6657L8.33033 13.6849V15.6466ZM11.2611 8.66248L12.965 9.6433L14.669 8.66248L12.965 7.68167L11.2611 8.66248ZM7.12055 9.6433L8.82449 8.66248L7.12055 7.68167L5.41663 8.66248V10.6241L7.12055 11.6049V9.6433ZM7.12055 12.9916L5.41663 12.0107V17.3207L10.0513 19.9756V18.014L7.12055 16.3399V12.9916Z" fill="#F0B90B"/>
</g>
</svg>
