<svg viewBox="0 0 98 98" fill="none" xmlns="http://www.w3.org/2000/svg">
<path d="M96.5435 60.8261C90.005 87.0601 63.4344 103.08 37.1522 96.5371C10.9182 89.9786 -5.07549 63.4078 1.46299 37.1739C8.00148 10.9399 34.5561 -5.07951 60.7741 1.46295C87.0723 7.92523 103.066 34.5761 96.5435 60.8261Z" fill="#F7931A"/>
<path d="M72.2033 42.5631C73.0841 36.0298 68.12 32.619 61.3144 30.3131L63.4282 21.4739L58.0478 20.1768L55.9981 28.8239C54.5729 28.4876 53.1318 28.1513 51.7066 27.8631L53.7563 19.216L48.3118 17.9189L46.1981 26.7582C45.0452 26.486 43.8762 26.2778 42.7233 26.0056L35.3092 24.2281L33.9481 29.9448C33.9481 29.9448 37.9674 30.8255 37.8233 30.9056C40.001 31.45 40.4174 32.8752 40.3373 33.9641L37.9514 44.0363C38.0955 44.1004 38.2876 44.1004 38.4958 44.2445C38.2876 44.1804 38.1595 44.1804 37.9514 44.1164L34.6847 58.2079C34.4125 58.8805 33.7239 59.8412 32.2347 59.505C32.2988 59.569 28.2795 58.5442 28.2795 58.5442L25.7334 64.7413L32.7471 66.3746C34.0442 66.7109 35.3412 66.9831 36.5582 67.3354L34.4445 76.2547L39.8249 77.5517L41.9386 68.7125C43.4439 69.1128 44.869 69.4651 46.2301 69.8014L44.1164 78.5766L49.4968 79.8736L51.6105 70.9543C60.802 72.5877 67.6716 71.8351 70.4579 63.4602C72.6997 56.7827 70.2497 52.9716 65.3497 50.4576C68.9367 49.6409 71.5308 47.319 72.2033 42.5631ZM60.0974 59.9053C58.5282 66.5828 47.239 63.1079 43.62 62.2272L46.4063 50.3775C50.0893 51.2742 61.7308 52.9076 60.0974 59.9053ZM61.5867 42.5631C60.1615 48.6161 50.7618 45.7017 47.7033 44.9491L50.2975 34.2043C53.2919 34.9409 63.0919 36.2379 61.5867 42.5631Z" fill="white"/>
</svg>
