<svg xmlns="http://www.w3.org/2000/svg" viewBox="0 0 146 222" fill="none"><script xmlns="" id="argent-x-extension" data-extension-id="dlcobpjiigpikoobohmabehhmhfoodbb"/>
<path fill-rule="evenodd" clip-rule="evenodd" d="M132.752 118.392L81.465 145.025C79.3403 142.165 75.9363 140.311 72.0993 140.311C68.2992 140.311 64.9237 142.129 62.7952 144.943L11.6666 118.392C10.9884 118.037 10.2111 117.918 9.45785 118.055C8.70466 118.192 8.01876 118.577 7.509 119.148C6.99769 119.721 6.69281 120.448 6.64299 121.214C6.59317 121.98 6.80128 122.74 7.23412 123.374L62.0227 204.012C61.0167 205.735 60.4402 207.741 60.4402 209.88C60.4402 216.319 65.6602 221.539 72.0993 221.539C78.5384 221.539 83.7583 216.319 83.7583 209.88C83.7583 207.736 83.1794 205.727 82.1693 204.001L137.184 123.477C137.617 122.844 137.825 122.083 137.776 121.317C137.726 120.551 137.421 119.824 136.91 119.251C136.413 118.663 135.733 118.259 134.979 118.103C134.225 117.947 133.441 118.049 132.752 118.392ZM77.216 199.401L123.75 130.831L83.7516 151.572C83.7561 151.704 83.7583 151.837 83.7583 151.97C83.7583 157.173 80.3505 161.58 75.6453 163.08V198.77C76.1871 198.943 76.7117 199.155 77.216 199.401ZM68.7732 198.703V163.148C63.9546 161.716 60.4402 157.254 60.4402 151.97C60.4402 151.799 60.4439 151.63 60.4512 151.46L20.669 130.831L67.1486 199.322C67.6702 199.077 68.2129 198.869 68.7732 198.703Z" fill="url(#paint0_linear_401_497)"/>
<path d="M6.71263 122.338C6.69578 122.51 6.69578 122.683 6.71263 122.855C6.71263 122.855 6.71263 122.855 6.71263 123.028C6.7964 123.18 6.90094 123.319 7.02325 123.442C7.10906 123.651 7.23849 123.839 7.40289 123.994C7.56191 124.172 7.74833 124.324 7.95509 124.443C8.07295 124.557 8.19992 124.66 8.33472 124.753L70.7336 156.194C71.183 156.422 71.6795 156.54 72.1832 156.54C72.6868 156.54 73.1833 156.422 73.6327 156.194L136.032 124.753C136.411 124.583 136.742 124.322 136.998 123.994C137.233 123.743 137.42 123.45 137.55 123.131C137.534 123.075 137.534 123.015 137.55 122.959C137.567 122.787 137.567 122.613 137.55 122.441C137.567 122.211 137.567 121.981 137.55 121.751C137.57 121.556 137.57 121.359 137.55 121.164C137.502 120.928 137.433 120.697 137.343 120.474L137.861 120.129L75.3238 2.78566C75.1909 2.54765 75.0286 2.32733 74.8406 2.12992C74.5172 1.77403 74.1229 1.48968 73.6831 1.2951C73.2432 1.10051 72.7676 1 72.2867 1C71.8058 1 71.3301 1.10051 70.8903 1.2951C70.4505 1.48968 70.0562 1.77403 69.7328 2.12992C69.5448 2.32733 69.3825 2.54765 69.2496 2.78566L6.71263 120.129C6.71263 120.129 6.71263 120.129 6.71263 120.336C6.62801 120.549 6.5588 120.768 6.50555 120.992C6.48903 121.198 6.48903 121.406 6.50555 121.613C6.55504 121.86 6.62429 122.102 6.71263 122.338ZM68.8354 147.739L18.0328 122.027L68.8354 100.111V147.739ZM75.738 100.111L126.541 122.027L75.738 147.739V100.111ZM75.738 92.5186V18.3509L127.024 114.745L75.738 92.5186ZM68.8354 92.5186L17.5496 114.745L68.8354 18.3509V92.5186Z" fill="url(#paint1_linear_401_497)"/>
<circle cx="133.644" cy="120.846" r="11.7108" fill="url(#paint2_radial_401_497)"/>
<circle cx="72.2868" cy="11.7108" r="11.7108" fill="url(#paint3_radial_401_497)"/>
<circle cx="72.2868" cy="96.2127" r="11.7108" fill="url(#paint4_radial_401_497)"/>
<circle cx="72" cy="152" r="12" fill="url(#paint5_radial_401_497)"/>
<circle cx="11.7108" cy="120.846" r="11.7108" fill="url(#paint6_radial_401_497)"/>
<defs>
<linearGradient id="paint0_linear_401_497" x1="72" y1="199" x2="72" y2="151" gradientUnits="userSpaceOnUse">
<stop stop-color="#E03138"/>
<stop offset="1" stop-color="#BA1E0C"/>
</linearGradient>
<linearGradient id="paint1_linear_401_497" x1="53" y1="1" x2="53" y2="157" gradientUnits="userSpaceOnUse">
<stop stop-color="#F9C30E"/>
<stop offset="0.46875" stop-color="#F68F1E"/>
<stop offset="1" stop-color="#E03138"/>
</linearGradient>
<radialGradient id="paint2_radial_401_497" cx="0" cy="0" r="1" gradientUnits="userSpaceOnUse" gradientTransform="translate(145.355 109.135) rotate(135) scale(33.1229 36.5678)">
<stop stop-color="#F9C30E"/>
<stop offset="0.46875" stop-color="#F68F1E"/>
<stop offset="1" stop-color="#E03138"/>
</radialGradient>
<radialGradient id="paint3_radial_401_497" cx="0" cy="0" r="1" gradientUnits="userSpaceOnUse" gradientTransform="translate(75.9999 4) rotate(128.455) scale(24.8009 27.3803)">
<stop stop-color="#F9C30E"/>
<stop offset="0.9999" stop-color="#F68F1E"/>
<stop offset="1" stop-color="#E03138"/>
</radialGradient>
<radialGradient id="paint4_radial_401_497" cx="0" cy="0" r="1" gradientUnits="userSpaceOnUse" gradientTransform="translate(83.9975 84.502) rotate(135) scale(33.1229 36.5678)">
<stop stop-color="#F9C30E"/>
<stop offset="0.46875" stop-color="#F68F1E"/>
<stop offset="1" stop-color="#E03138"/>
</radialGradient>
<radialGradient id="paint5_radial_401_497" cx="0" cy="0" r="1" gradientUnits="userSpaceOnUse" gradientTransform="translate(83.9999 140) rotate(135) scale(33.941 37.471)">
<stop stop-color="#F9C30E"/>
<stop offset="0.46875" stop-color="#F68F1E"/>
<stop offset="1" stop-color="#E03138"/>
</radialGradient>
<radialGradient id="paint6_radial_401_497" cx="0" cy="0" r="1" gradientUnits="userSpaceOnUse" gradientTransform="translate(23.4214 109.135) rotate(135) scale(33.1229 36.5678)">
<stop stop-color="#F9C30E"/>
<stop offset="0.46875" stop-color="#F68F1E"/>
<stop offset="1" stop-color="#E03138"/>
</radialGradient>
</defs>
</svg>