<svg width="26" height="26" viewBox="0 0 26 26" fill="none" xmlns="http://www.w3.org/2000/svg">
<g id="Group 3784">
<circle id="Ellipse 45" cx="13" cy="13" r="13" fill="#B8FAF6"/>
<g id="Group 3777">
<path id="Vector" fill-rule="evenodd" clip-rule="evenodd" d="M12.7292 3.25024C12.8013 3.24671 12.8714 3.2821 12.9107 3.34529L18.9281 13.03C18.9569 13.0764 18.9656 13.1325 18.9521 13.1853C18.9387 13.2382 18.9042 13.2834 18.8567 13.3105L12.8393 16.7411C12.8052 16.7605 12.767 16.7692 12.7292 16.7674C12.6913 16.7692 12.6531 16.7605 12.619 16.7411L6.60162 13.3105C6.5541 13.2834 6.51966 13.2382 6.5062 13.1853C6.49274 13.1325 6.50141 13.0764 6.53023 13.03L12.5476 3.34529C12.5869 3.2821 12.657 3.24671 12.7292 3.25024ZM18.8374 14.1559C18.9016 14.2261 18.9078 14.3314 18.8522 14.4086L12.903 22.6662C12.8624 22.7225 12.7964 22.753 12.7292 22.7498C12.6619 22.753 12.5959 22.7225 12.5553 22.6662L6.6061 14.4086C6.55052 14.3314 6.55667 14.2261 6.62085 14.1559C6.68503 14.0857 6.78975 14.0697 6.87203 14.1177L12.7292 17.5302L18.5863 14.1177C18.6685 14.0697 18.7733 14.0857 18.8374 14.1559Z" fill="#1616B4"/>
<path id="Vector_2" d="M12.5173 21.9236L7.48767 14.9424L12.5173 17.8728V21.9236Z" fill="#F0CDC2"/>
<path id="Vector_3" d="M12.9409 21.9236V17.8728L17.9706 14.9424L12.9409 21.9236Z" fill="#C9B3F5"/>
<path id="Vector_4" d="M12.5175 16.2195L7.14685 13.1577L12.5175 10.7617V16.2195Z" fill="#88AAF1"/>
<path id="Vector_5" d="M12.9409 16.2195V10.7617L18.3115 13.1577L12.9409 16.2195Z" fill="#C9B3F5"/>
<path id="Vector_6" d="M12.5174 10.321L7.21985 12.6844L12.5174 4.1582V10.321Z" fill="#F0CDC2"/>
<path id="Vector_7" d="M12.9409 10.321V4.1582L18.2385 12.6844L12.9409 10.321Z" fill="#B8FAF6"/>
</g>
</g>
</svg>
