<svg xmlns="http://www.w3.org/2000/svg" viewBox="0 0 32 32" fill="none">
  <rect width="32" height="32" rx="16" fill="#8247E5"/>
  <path d="M21.3517 12.3719C20.965 12.1504 20.4679 12.1504 20.026 12.3719L16.9328 14.1998L14.8338 15.363L11.7958 17.1909C11.4092 17.4124 10.9121 17.4124 10.4702 17.1909L8.09505 15.7507C7.70839 15.5292 7.43222 15.086 7.43222 14.5875V11.818C7.43222 11.3749 7.65316 10.9318 8.09505 10.6548L10.4702 9.27008C10.8568 9.04852 11.354 9.04852 11.7958 9.27008L14.171 10.7102C14.5576 10.9318 14.8338 11.3749 14.8338 11.8734V13.7013L16.9328 12.4827V10.5994C16.9328 10.1563 16.7118 9.71321 16.27 9.43625L11.8511 6.83292C11.4644 6.61136 10.9673 6.61136 10.5254 6.83292L5.99608 9.49164C5.5542 9.71321 5.33325 10.1563 5.33325 10.5994V15.8061C5.33325 16.2492 5.5542 16.6924 5.99608 16.9693L10.4702 19.5726C10.8568 19.7942 11.354 19.7942 11.7958 19.5726L14.8338 17.8002L16.9328 16.5816L19.9708 14.8091C20.3574 14.5875 20.8545 14.5875 21.2964 14.8091L23.6716 16.1939C24.0582 16.4154 24.3344 16.8585 24.3344 17.357V20.1266C24.3344 20.5697 24.1135 21.0128 23.6716 21.2897L21.3517 22.6745C20.965 22.8961 20.4679 22.8961 20.026 22.6745L17.6509 21.2897C17.2642 21.0682 16.988 20.6251 16.988 20.1266V18.3541L14.8891 19.5726V21.4005C14.8891 21.8436 15.11 22.2868 15.5519 22.5637L20.026 25.1671C20.4126 25.3886 20.9098 25.3886 21.3517 25.1671L25.8258 22.5637C26.2124 22.3422 26.4886 21.899 26.4886 21.4005V16.1385C26.4886 15.6953 26.2677 15.2522 25.8258 14.9753L21.3517 12.3719Z" fill="white"/>
</svg>