<svg width="10" height="10" viewBox="0 0 10 10" fill="none" xmlns="http://www.w3.org/2000/svg">
<g id="Vector">
<path d="M5 9.83913e-08H4.97331C3.89964 -5.8898e-06 3.05823 -1.06318e-05 2.40172 0.0882543C1.72975 0.178598 1.19951 0.367129 0.783319 0.783319C0.367129 1.19951 0.178598 1.72975 0.0882543 2.40172C-1.06318e-05 3.05823 -5.8898e-06 3.89964 9.839e-08 4.97331V5.02669C-5.8898e-06 6.10036 -1.06318e-05 6.94177 0.0882543 7.59828C0.178598 8.27025 0.367129 8.80049 0.783319 9.21668C1.19951 9.63287 1.72975 9.8214 2.40172 9.91175C3.05823 10 3.89964 10 4.97332 10H5.02668C6.10036 10 6.94177 10 7.59828 9.91175C8.27025 9.8214 8.80049 9.63287 9.21668 9.21668C9.63287 8.80049 9.8214 8.27025 9.91175 7.59828C10 6.94177 10 6.10036 10 5.02668V5C10 4.80734 9.84382 4.65116 9.65116 4.65116C9.45851 4.65116 9.30233 4.80734 9.30233 5C9.30233 6.10615 9.30159 6.90067 9.22029 7.50531C9.14035 8.09992 8.98831 8.45839 8.72335 8.72335C8.45839 8.98831 8.09992 9.14035 7.50531 9.22029C6.90067 9.30159 6.10615 9.30233 5 9.30233C3.89385 9.30233 3.09933 9.30159 2.49469 9.22029C1.90008 9.14035 1.54161 8.98831 1.27665 8.72335C1.01169 8.45839 0.85965 8.09992 0.779707 7.50531C0.698416 6.90067 0.697675 6.10615 0.697675 5C0.697675 3.89385 0.698416 3.09933 0.779707 2.49469C0.85965 1.90008 1.01169 1.54161 1.27665 1.27665C1.54161 1.01169 1.90008 0.85965 2.49469 0.779707C3.09933 0.698416 3.89385 0.697675 5 0.697675C5.19266 0.697675 5.34884 0.541495 5.34884 0.348837C5.34884 0.15618 5.19266 9.83913e-08 5 9.83913e-08Z" fill="#EBEBF5" fill-opacity="0.6"/>
<path d="M5.21845 4.28822C5.08222 4.42445 5.08222 4.64532 5.21845 4.78155C5.35468 4.91778 5.57555 4.91778 5.71178 4.78155L9.30233 1.191V2.8343C9.30233 3.02696 9.45851 3.18314 9.65116 3.18314C9.84382 3.18314 10 3.02696 10 2.8343V0.348837C10 0.15618 9.84382 9.83913e-08 9.65116 9.83913e-08H7.1657C6.97304 9.83913e-08 6.81686 0.15618 6.81686 0.348837C6.81686 0.541495 6.97304 0.697675 7.1657 0.697675H8.809L5.21845 4.28822Z" fill="#EBEBF5" fill-opacity="0.6"/>
</g>
</svg>
