<svg xmlns="http://www.w3.org/2000/svg" width="17" height="16" viewBox="0 0 17 16" fill="none">
<path fill-rule="evenodd" clip-rule="evenodd" d="M11.52 7.04H16C16.3535 7.04 16.64 7.32654 16.64 7.68V11.52C16.64 11.8735 16.3535 12.16 16 12.16H15.36V14.08C15.3588 15.1399 14.4999 15.9988 13.44 16H3.2C1.43288 15.9995 0.000459272 14.5671 0 12.8V3.2C0.000459272 1.43288 1.43288 0.000459272 3.2 0H12.16C13.2203 0.000282626 14.0797 0.85973 14.08 1.92V2.6697C14.8834 2.89117 15.4191 3.6487 15.36 4.48V5.13344C15.36 5.4869 15.0735 5.77344 14.72 5.77344C14.3665 5.77344 14.08 5.4869 14.08 5.13344V4.48C14.0795 4.12673 13.7933 3.84046 13.44 3.84H3.2C2.84654 3.84 2.56 3.55346 2.56 3.2C2.56 2.84654 2.84654 2.56 3.2 2.56H12.8V1.92C12.8 1.56654 12.5135 1.28 12.16 1.28H3.2C2.13973 1.28028 1.28028 2.13973 1.28 3.2V12.8C1.28028 13.8603 2.13973 14.7197 3.2 14.72H13.44C13.7933 14.7195 14.0795 14.4333 14.08 14.08V12.16H11.52C10.1062 12.16 8.96 11.0138 8.96 9.6C8.96 8.18615 10.1062 7.04 11.52 7.04ZM10.24 9.6C10.24 10.3069 10.8131 10.88 11.52 10.88H15.36V8.32H11.52C10.8131 8.32 10.24 8.89307 10.24 9.6Z" fill="#000"/>
</svg>